<svg width="28" height="27" viewBox="0 0 28 27" fill="none" xmlns="http://www.w3.org/2000/svg">
<path d="M7.27631 5.61502H23.7797L21.5344 13.4737H8.48535M22.6571 17.9643H9.1851L6.93977 3.36969H3.57178M10.3078 22.455C10.3078 23.075 9.80513 23.5776 9.1851 23.5776C8.56507 23.5776 8.06243 23.075 8.06243 22.455C8.06243 21.8349 8.56507 21.3323 9.1851 21.3323C9.80513 21.3323 10.3078 21.8349 10.3078 22.455ZM22.6571 22.455C22.6571 23.075 22.1544 23.5776 21.5344 23.5776C20.9144 23.5776 20.4117 23.075 20.4117 22.455C20.4117 21.8349 20.9144 21.3323 21.5344 21.3323C22.1544 21.3323 22.6571 21.8349 22.6571 22.455Z" stroke="white" stroke-width="2.15551" stroke-linecap="round" stroke-linejoin="round"/>
</svg>
