<svg width="129" height="54" viewBox="0 0 129 54" fill="none" xmlns="http://www.w3.org/2000/svg">
<g clip-path="url(#clip0_231_1573)">
<path fill-rule="evenodd" clip-rule="evenodd" d="M79.6749 42.559C72.2202 47.8002 61.415 50.5966 52.1119 50.5966C39.0674 50.5966 27.3241 45.9945 18.4398 38.3404C17.7418 37.7385 18.3672 36.9182 19.2048 37.3869C28.7927 42.7081 40.6477 45.9093 52.8936 45.9093C61.1525 45.9093 70.2378 44.2794 78.5916 40.8971C79.8536 40.3857 80.909 41.6854 79.6749 42.559Z" fill="#FF9900"/>
<path fill-rule="evenodd" clip-rule="evenodd" d="M82.7742 39.1767C81.8249 38.0155 76.4754 38.628 74.0742 38.8997C73.3427 38.9849 73.231 38.3777 73.8899 37.9409C78.1506 35.0806 85.1418 35.9062 85.9571 36.865C86.7724 37.8291 85.7449 44.5138 81.7411 47.7044C81.1269 48.1944 80.5406 47.9334 80.8142 47.2836C81.7132 45.1423 83.7291 40.3432 82.7742 39.1767Z" fill="#FF9900"/>
<path fill-rule="evenodd" clip-rule="evenodd" d="M74.242 17.7484V14.968C74.242 14.5472 74.5771 14.2649 74.9791 14.2649H88.0291C88.4479 14.2649 88.783 14.5525 88.783 14.968V17.3489C88.7774 17.7484 88.4256 18.2704 87.8002 19.096L81.0378 28.3055C83.5507 28.2469 86.2031 28.6038 88.4814 29.8289C88.9952 30.1058 89.1348 30.5106 89.1739 30.9101V33.877C89.1739 34.2818 88.7048 34.7559 88.2134 34.5108C84.1984 32.5028 78.8656 32.2844 74.4263 34.5321C73.974 34.7665 73.4993 34.2978 73.4993 33.893V31.0753C73.4993 30.6225 73.5049 29.8502 73.9795 29.163L81.814 18.4462H74.9959C74.5771 18.4462 74.242 18.1639 74.242 17.7484Z" fill="black"/>
<path fill-rule="evenodd" clip-rule="evenodd" d="M26.6376 35.0968H22.6673C22.2876 35.0702 21.9861 34.7985 21.9582 34.4523V15.0159C21.9582 14.6271 22.2988 14.3182 22.7232 14.3182H26.4254C26.8107 14.3341 27.1179 14.6164 27.1458 14.968V17.5087H27.2184C28.1844 15.0532 29.9992 13.908 32.4451 13.908C34.93 13.908 36.4824 15.0532 37.5992 17.5087C38.5596 15.0532 40.743 13.908 43.0828 13.908C44.7468 13.908 46.5672 14.5632 47.6785 16.0333C48.9349 17.6685 48.678 20.0441 48.678 22.1268L48.6724 34.3937C48.6724 34.7825 48.3318 35.0968 47.9074 35.0968H43.9427C43.5462 35.0702 43.228 34.7665 43.228 34.3937V24.0923C43.228 23.272 43.3061 21.2266 43.1163 20.4489C42.8203 19.144 41.9324 18.7764 40.7821 18.7764C39.8217 18.7764 38.8165 19.389 38.4089 20.3691C38.0012 21.3491 38.0403 22.9897 38.0403 24.0923V34.3937C38.0403 34.7825 37.6997 35.0968 37.2753 35.0968H33.3106C32.9086 35.0702 32.5958 34.7665 32.5958 34.3937L32.5903 24.0923C32.5903 21.9244 32.9644 18.7338 30.1444 18.7338C27.291 18.7338 27.4026 21.8445 27.4026 24.0923V34.3937C27.4026 34.7825 27.062 35.0968 26.6376 35.0968Z" fill="black"/>
<path fill-rule="evenodd" clip-rule="evenodd" d="M100.018 13.908C105.909 13.908 109.098 18.7338 109.098 24.8699C109.098 30.7983 105.574 35.5016 100.018 35.5016C94.2329 35.5016 91.0835 30.6758 91.0835 24.6622C91.0835 18.6113 94.272 13.908 100.018 13.908ZM100.051 17.8763C97.1254 17.8763 96.9412 21.6794 96.9412 24.0497C96.9412 26.4253 96.9021 31.4961 100.018 31.4961C103.095 31.4961 103.24 27.4053 103.24 24.9125C103.24 23.272 103.167 21.3118 102.648 19.7565C102.201 18.4036 101.314 17.8763 100.051 17.8763Z" fill="black"/>
<path fill-rule="evenodd" clip-rule="evenodd" d="M116.737 35.0968H112.783C112.387 35.0702 112.069 34.7665 112.069 34.3937L112.063 14.952C112.097 14.5951 112.426 14.3182 112.828 14.3182H116.508C116.854 14.3341 117.139 14.5579 117.217 14.8615V17.8336H117.29C118.401 15.1757 119.959 13.908 122.701 13.908C124.482 13.908 126.219 14.5206 127.336 16.1984C128.374 17.7537 128.374 20.3691 128.374 22.2493V34.4842C128.329 34.8251 128 35.0968 127.609 35.0968H123.628C123.265 35.0702 122.963 34.8145 122.924 34.4842V23.9271C122.924 21.8019 123.181 18.6912 120.439 18.6912C119.473 18.6912 118.585 19.3091 118.144 20.2465C117.586 21.4344 117.513 22.6168 117.513 23.9271V34.3937C117.508 34.7825 117.161 35.0968 116.737 35.0968Z" fill="black"/>
<path fill-rule="evenodd" clip-rule="evenodd" d="M63.8389 25.8127C63.8389 27.2881 63.878 28.5185 63.0962 29.8289C62.4652 30.8942 61.4601 31.5493 60.3488 31.5493C58.8244 31.5493 57.9309 30.4414 57.9309 28.8062C57.9309 25.5783 60.9631 24.9924 63.8389 24.9924V25.8127ZM67.8427 35.0435C67.5802 35.2672 67.2005 35.2832 66.9045 35.134C65.5867 34.0901 65.3466 33.6053 64.6262 32.6093C62.4484 34.7292 60.9016 35.3631 58.0817 35.3631C54.7368 35.3631 52.1402 33.3976 52.1402 29.4613C52.1402 26.388 53.8825 24.2946 56.373 23.272C58.5284 22.3664 61.5382 22.2067 63.8389 21.9563V21.4663C63.8389 20.5661 63.9115 19.5008 63.3531 18.7231C62.8728 18.0254 61.9459 17.7377 61.125 17.7377C59.6117 17.7377 58.266 18.4781 57.9365 20.0121C57.8695 20.353 57.607 20.6886 57.2441 20.7046L53.3966 20.3104C53.0728 20.2412 52.7098 19.9908 52.8047 19.5168C53.687 15.0638 57.9086 13.7216 61.6834 13.7216C63.6155 13.7216 66.1395 14.2116 67.664 15.6071C69.5961 17.3276 69.4118 19.6233 69.4118 22.1214V28.0232C69.4118 29.7969 70.1824 30.5746 70.9083 31.5333C71.1596 31.8742 71.2155 32.2844 70.8916 32.54C70.0819 33.1846 68.6412 34.383 67.8482 35.0542L67.8427 35.0435Z" fill="black"/>
<path fill-rule="evenodd" clip-rule="evenodd" d="M11.7895 25.8127C11.7895 27.2881 11.8286 28.5185 11.0468 29.8289C10.4158 30.8942 9.41624 31.5493 8.29942 31.5493C6.77497 31.5493 5.8871 30.4414 5.8871 28.8062C5.8871 25.5783 8.91926 24.9924 11.7895 24.9924V25.8127ZM15.7933 35.0435C15.5308 35.2672 15.1511 35.2832 14.8551 35.134C13.5373 34.09 13.3028 33.6053 12.5768 32.6093C10.399 34.7292 8.85783 35.3631 6.03228 35.3631C2.693 35.3631 0.0908203 33.3976 0.0908203 29.4613C0.0908203 26.3879 1.83864 24.2946 4.32355 23.2719C6.47901 22.3664 9.48883 22.2067 11.7895 21.9563V21.4663C11.7895 20.5661 11.8621 19.5008 11.3092 18.7231C10.8234 18.0254 9.89647 17.7377 9.08119 17.7377C7.56791 17.7377 6.21656 18.4781 5.8871 20.0121C5.82009 20.353 5.55764 20.6886 5.20026 20.7046L1.34724 20.3104C1.02336 20.2412 0.66598 19.9908 0.755325 19.5168C1.6432 15.0638 5.85918 13.7216 9.63402 13.7216C11.5661 13.7216 14.0901 14.2116 15.6146 15.6071C17.5467 17.3276 17.3624 19.6233 17.3624 22.1214V28.0232C17.3624 29.7969 18.133 30.5746 18.8589 31.5333C19.1158 31.8742 19.1716 32.2844 18.8478 32.54C18.0381 33.1845 16.5974 34.383 15.8044 35.0541L15.7933 35.0435Z" fill="black"/>
</g>
<defs>
<clipPath id="clip0_231_1573">
<rect width="128.862" height="53.6368" fill="white" transform="translate(0.0908203 0.312378)"/>
</clipPath>
</defs>
</svg>
